<svg width="40" height="40" viewBox="0 0 40 40" fill="none" xmlns="http://www.w3.org/2000/svg">
<path d="M33.0959 3.33301H6.90541C5.95821 3.33301 5.0498 3.70928 4.38003 4.37906C3.71026 5.04883 3.33398 5.95723 3.33398 6.90444L3.33398 33.0949C3.33398 34.0421 3.71026 34.9505 4.38003 35.6203C5.0498 36.2901 5.95821 36.6663 6.90541 36.6663H17.1175V25.3338H12.43V19.9997H17.1175V15.9342C17.1175 11.3099 19.8704 8.75563 24.087 8.75563C26.1063 8.75563 28.2179 9.11575 28.2179 9.11575V13.6544H25.8913C23.5989 13.6544 22.8838 15.0771 22.8838 16.5361V19.9997H28.0014L27.1829 25.3338H22.8838V36.6663H33.0959C34.0431 36.6663 34.9515 36.2901 35.6213 35.6203C36.291 34.9505 36.6673 34.0421 36.6673 33.0949V6.90444C36.6673 5.95723 36.291 5.04883 35.6213 4.37906C34.9515 3.70928 34.0431 3.33301 33.0959 3.33301Z" fill="#494C21"/>
</svg>
